# xmcd CD database file
#
# Track frame offsets:
#	150
#	21043
#	40396
#
# Disc length: 812 seconds
#
# Revision: 3
# Processed by: cddbd v1.5.2PL0 Copyright (c) Steve Scherf et al.
# Submitted via: CDex 1.70beta3
#
DISCID=1c032a03
DTITLE=モーニング娘。 - Help me!! - 大好きだから絶対に許さない [通常盤A]
DYEAR=2013
DGENRE=JPop
TTITLE0=Help me!!
TTITLE1=大好きだから絶対に許さない [鞘師里保 and 小田さくら]
TTITLE2=Help me!! (Instrumental)
EXTD=YEAR: 2013
EXTT0=
EXTT1=
EXTT2=
PLAYORDER=
